<svg width="121" height="121" viewBox="0 0 121 121" fill="none" xmlns="http://www.w3.org/2000/svg">
<path fill-rule="evenodd" clip-rule="evenodd" d="M23.6678 7.14148C18.2604 7.14148 13.4457 9.67769 10.3492 13.625L2.46319 25.5749C1.46927 27.341 0.902344 29.3792 0.902344 31.5499C0.902344 34.0954 1.68199 36.4589 3.0156 38.4147L46.5297 105.586L46.6629 105.792C49.6867 110.387 54.8913 113.42 60.8046 113.42C66.7179 113.42 71.9225 110.387 74.9463 105.792L75.0795 105.586L118.594 38.4147C119.927 36.4589 120.707 34.0954 120.707 31.5499C120.707 29.3792 120.14 27.341 119.146 25.5749L111.26 13.625C108.164 9.67769 103.349 7.14148 97.9415 7.14148H60.8046H23.6678ZM73.9043 31.5499L60.8046 52.0173L47.705 31.5499H27.6104L60.8046 82.4007L93.9989 31.5499H73.9043Z" fill="#359E03"/>
<path d="M93.9989 31.5499L60.8046 82.4007L27.6104 31.5499H47.705L60.8046 52.0173L73.9043 31.5499H93.9989Z" fill="white"/>
</svg>
